#!OML:ASF H:\Punching\Project 1\Capture day 1\Session 1\female.ASF
:FULLY-SPECIFIED
:DEGREES
1743
root -2.58425 14.3107 11.3898 20.7513 30.2786 3.57978
lowerback 5.60152 1.51034 3.43697
upperback -4.20102 2.29131 -0.862129
thorax -7.38458 0.928747 -3.10602
lowerneck -13.4048 -0.11886 5.33206
upperneck 16.9745 0.15848 -7.41512
head 7.42133 -0.251901 -3.30471
rclavicle 2.0276e-014 4.77083e-015
rhumerus 1.90037 6.88377 -78.334
rradius 48.9898
rwrist 8.42586
rhand -26.8029 4.41378
rfingers 7.12502
rthumb -0.229679 -25.5658
lclavicle 2.0276e-014 4.77083e-015
lhumerus -11.2935 -45.8114 86.3903
lradius 119.221
lwrist -3.72428
lhand -25.0487 6.53347
lfingers 7.12502
lthumb 1.46451 36.5082
rfemur -54.099 -17.0949 15.508
rtibia 64.8727
rfoot -23.8576 -13.3414
rtoes -7.5254
lfemur -6.39837 -14.9889 7.03011
ltibia 0.606995
lfoot -10.5293 15.9127
ltoes -20.632
1744
root -2.5107 14.3459 11.3401 20.3646 29.8056 3.3029
lowerback 5.5324 1.52149 3.4373
upperback -4.19799 2.30282 -0.873624
thorax -7.33979 0.93524 -3.1168
lowerneck -13.3595 -0.138321 5.33022
upperneck 16.9696 0.0733625 -7.10833
head 7.40631 -0.264336 -3.2104
rclavicle 1.48095e-014 -2.38542e-015
rhumerus 0.705179 6.91618 -77.5179
rradius 49.5202
rwrist 7.29668
rhand -24.9154 3.29899
rfingers 7.12502
rthumb 1.59328 -26.6748
lclavicle 1.48095e-014 -2.38542e-015
lhumerus -11.8284 -44.8694 85.6223
lradius 118.721
lwrist -3.78118
lhand -24.8561 6.66445
lfingers 7.12502
lthumb 1.65057 36.6378
rfemur -53.45 -16.8136 15.2371
rtibia 63.8781
rfoot -23.2506 -13.0271
rtoes -7.84954
lfemur -8.78833 -13.9508 6.72448
ltibia 6.2558
lfoot -13.1182 14.6621
ltoes -20.7639
1745
root -2.43447 14.3811 11.289 19.9724 29.3444 3.0074
lowerback 5.45801 1.52672 3.45543
upperback -4.1964 2.30858 -0.873189
thorax -7.29382 0.938351 -3.12418
lowerneck -13.3172 -0.157982 5.33275
upperneck 16.9754 -0.0128415 -6.7989
head 7.39558 -0.276809 -3.11642
rclavicle -5.82439e-014 2.38542e-014
rhumerus -0.525509 6.92681 -76.7313
rradius 50.0097
rwrist 6.28603
rhand -23.2302 2.29112
rfingers 7.12502
rthumb 3.22082 -27.6643
lclavicle -5.82439e-014 2.38542e-014
lhumerus -12.3865 -43.9768 84.8443
lradius 118.184
lwrist -3.87474
lhand -24.7114 6.782
lfingers 7.12502
lthumb 1.79029 36.7542
rfemur -52.7818 -16.5255 14.977
rtibia 62.8418
rfoot -22.6214 -12.7162
rtoes -8.17449
lfemur -9.64937 -13.1747 6.40119
ltibia 8.85035
lfoot -14.1358 13.6533
ltoes -20.9031
1746
root -2.3558 14.4165 11.2367 19.5776 28.8932 2.69794
lowerback 5.38006 1.52636 3.48492
upperback -4.19585 2.30847 -0.861023
thorax -7.24746 0.938322 -3.12483
lowerneck -13.2852 -0.176354 5.34351
upperneck 16.9937 -0.0979552 -6.49382
head 7.39114 -0.288744 -3.02561
rclavicle 1.19271e-015 1.35174e-014
rhumerus -1.79124 6.90912 -75.9785
rradius 50.4694
rwrist 5.38454
rhand -21.7642 1.39436
rfingers 7.12502
rthumb 4.63642 -28.5349
lclavicle 1.19271e-015 1.35174e-014
lhumerus -12.9617 -43.1359 84.0625
lradius 117.623
lwrist -3.96526
lhand -24.6038 6.88634
lfingers 7.12502
lthumb 1.89417 36.8577
rfemur -52.0943 -16.2241 14.7221
rtibia 61.7642
rfoot -21.9698 -12.4167
rtoes -8.50676
lfemur -10.2164 -12.4536 6.09138
ltibia 10.8323
lfoot -14.8505 12.6831
ltoes -21.0715
1747
root -2.27471 14.4518 11.183 19.1837 28.4559 2.38037
lowerback 5.29704 1.51759 3.51954
upperback -4.19631 2.29815 -0.835784
thorax -7.20041 0.933391 -3.11334
lowerneck -13.2614 -0.189173 5.37287
upperneck 17.0222 -0.176111 -6.20532
head 7.39218 -0.297707 -2.94307
rclavicle -1.58034e-014 -2.5842e-014
rhumerus -3.08946 6.86438 -75.2567
rradius 50.9059
rwrist 4.58268
rhand -20.5148 0.629624
rfingers 7.12502
rthumb 5.84276 -29.2698
lclavicle -1.58034e-014 -2.5842e-014
lhumerus -13.5538 -42.3399 83.2863
lradius 117.04
lwrist -4.03508
lhand -24.5163 6.97843
lfingers 7.12502
lthumb 1.97876 36.949
rfemur -51.3877 -15.9127 14.4668
rtibia 60.6474
rfoot -21.296 -12.1317
rtoes -8.84297
lfemur -10.6521 -12.38 5.91353
ltibia 12.4661
lfoot -15.4062 12.3415
ltoes -21.2855
1748
root -2.19149 14.4871 11.1279 18.7917 28.0314 2.05281
lowerback 5.21439 1.4998 3.55729
upperback -4.20123 2.27694 -0.7964
thorax -7.15966 0.923122 -3.08776
lowerneck -13.2391 -0.195772 5.42228
upperneck 17.0562 -0.246339 -5.93513
head 7.39599 -0.303181 -2.86931
rclavicle 1.39149e-015 -1.11319e-014
rhumerus -4.4212 6.81434 -74.5582
rradius 51.3387
rwrist 3.85497
rhand -19.4694 -0.0636829
rfingers 7.12502
rthumb 6.85207 -29.9328
lclavicle 1.39149e-015 -1.11319e-014
lhumerus -14.1587 -41.5891 82.5245
lradius 116.43
lwrist -4.0824
lhand -24.4414 7.06381
lfingers 7.12502
lthumb 2.05104 37.0337
rfemur -50.6663 -15.5811 14.2119
rtibia 59.4922
rfoot -20.5973 -11.8699
rtoes -9.16848
lfemur -10.9812 -12.3094 5.75587
ltibia 13.8459
lfoot -15.8505 11.9995
ltoes -21.5486
1749
root -2.10593 14.5223 11.0713 18.4045 27.6202 1.72059
lowerback 5.13315 1.47412 3.59944
upperback -4.21373 2.24629 -0.747541
thorax -7.12882 0.907908 -3.05401
lowerneck -13.2035 -0.199532 5.49181
upperneck 17.0917 -0.313829 -5.67731
head 7.39819 -0.306891 -2.80265
rclavicle 9.29318e-014 -1.98785e-014
rhumerus -5.79305 6.76219 -73.8786
rradius 51.784
rwrist 3.18566
rhand -18.6104 -0.726313
rfingers 7.12502
rthumb 7.68116 -30.5668
lclavicle 9.29318e-014 -1.98785e-014
lhumerus -14.7988 -40.8859 81.7966
lradius 115.794
lwrist -4.12272
lhand -24.363 7.13775
lfingers 7.12502
lthumb 2.12678 37.1069
rfemur -49.9302 -15.2303 13.9515
rtibia 58.2986
rfoot -19.8699 -11.6371
rtoes -9.4862
lfemur -11.2245 -12.257 5.61218
ltibia 15.0138
lfoot -16.2223 11.6702
ltoes -21.8427
